<?xml version="1.0" encoding="utf-8"?>
<!-- Generator: Adobe Illustrator 24.3.0, SVG Export Plug-In . SVG Version: 6.00 Build 0)  -->
<svg version="1.1" id="Capa_1" xmlns="http://www.w3.org/2000/svg" xmlns:xlink="http://www.w3.org/1999/xlink" x="0px" y="0px"
	 viewBox="0 0 512 512" style="enable-background:new 0 0 512 512;" xml:space="preserve">
<style type="text/css">
	.st0{fill:#A47B08;}
</style>
<path class="st0" d="M482.9,278h15v170.3h-15V278z"/>
<path class="st0" d="M498,221.4h14v-45.1H373.7v-35.1h15V86.2H263.5v-21h70.1V0h-85.2v57.6v7.5v21H123.2v55.1h15v35.1H74.6v15h63.6
	v15H15v-15h44.6v-15H0v45.1h14v226.9h15V221.4h109.2v157.8h15V221.4v-45.1v-35.1h32.6v-15h-47.6v-25h235.5v25H200.9v15h157.8v35.1
	v45.1V497h-20v-30.1h-15v-30.1H188.4v30.1h-15V497h-20V394.3h-15v72.6H0V512h138.3h7.5h220.4h7.5H512v-45.1H373.7V221.4h109.2V263
	h15V221.4z M263.5,15h55.1v35.1h-55.1V15z M138.3,497H15v-15h123.2V497z M203.4,451.9h105.2v15H203.4V451.9z M323.6,497H188.4v-15
	h135.3V497z M497,481.9v15H373.7v-15H497z M497,206.4H373.7v-15H497V206.4z"/>
<path class="st0" d="M308.6,420.3v-83.7H203.4v83.7h15v-68.6h30.1v68.6h15v-68.6h30.1v68.6H308.6z"/>
<path class="st0" d="M256,165.3c-34.5,0-62.6,28.1-62.6,62.6s28.1,62.6,62.6,62.6s62.6-28.1,62.6-62.6S290.5,165.3,256,165.3z
	 M256,275.5c-26.2,0-47.6-21.4-47.6-47.6s21.4-47.6,47.6-47.6c26.2,0,47.6,21.4,47.6,47.6S282.2,275.5,256,275.5z"/>
<path class="st0" d="M263.5,197.9h-15v37.6H280v-15h-16.5V197.9z"/>
<path class="st0" d="M116.2,251.5H51.1v65.1h65.1V251.5z M101.2,301.6H66.1v-35.1h35.1V301.6z"/>
<path class="st0" d="M51.1,406.8h65.1v-65.1H51.1V406.8z M66.1,356.7h35.1v35.1H66.1V356.7z"/>
<path class="st0" d="M460.9,251.5h-65.1v65.1h65.1V251.5z M445.9,301.6h-35.1v-35.1h35.1V301.6z"/>
<path class="st0" d="M395.8,406.8h65.1v-65.1h-65.1V406.8z M410.8,356.7h35.1v35.1h-35.1V356.7z"/>
</svg>
