<?xml version="1.0" standalone="no"?>
<!DOCTYPE svg PUBLIC "-//W3C//DTD SVG 20010904//EN"
 "http://www.w3.org/TR/2001/REC-SVG-20010904/DTD/svg10.dtd">
<svg version="1.0" xmlns="http://www.w3.org/2000/svg"
 width="63.000000pt" height="63.000000pt" viewBox="0 0 63.000000 63.000000"
 preserveAspectRatio="xMidYMid meet">
<style xmlns="http://www.w3.org/2000/svg" type="text/css">
	.st0{fill:#A47B08;}
</style>
<g transform="translate(0.000000,63.000000) scale(0.100000,-0.100000)"
fill="#000000" stroke="none">
<path class="st0" d="M264 620 c-64 -13 -108 -35 -153 -76 -55 -49 -87 -106 -99 -174 -35
-192 108 -363 303 -363 175 0 308 133 308 308 0 153 -104 276 -257 304 -33 6
-60 11 -60 10 -1 -1 -19 -5 -42 -9z m184 -41 c201 -100 224 -369 44 -506 -106
-80 -262 -75 -368 12 -131 108 -140 318 -19 440 91 90 228 112 343 54z"/>
<path class="st0" d="M248 576 c-138 -37 -228 -178 -198 -311 12 -52 48 -125 62 -125 5 0
-2 17 -16 38 -61 97 -46 234 36 319 81 84 235 99 329 33 16 -12 32 -20 35 -17
9 9 -79 55 -126 66 -56 13 -64 13 -122 -3z"/>
<path class="st0" d="M520 488 c0 -3 12 -29 27 -57 30 -59 36 -141 14 -205 -15 -44 -81
-120 -122 -142 -82 -42 -187 -37 -262 12 -22 14 -41 23 -44 21 -8 -9 79 -55
126 -67 78 -21 179 8 244 69 16 14 41 49 55 76 34 67 36 170 4 230 -26 48 -42
72 -42 63z"/>
<path class="st0" d="M190 396 c0 -7 9 -16 21 -19 19 -5 20 -12 17 -86 -3 -72 -1 -81 15
-81 15 0 17 11 17 100 l0 100 -35 0 c-23 0 -35 -5 -35 -14z"/>
<path class="st0" d="M310 395 c0 -10 10 -15 30 -15 17 0 30 -3 30 -6 0 -3 -12 -21 -26
-40 l-26 -34 40 0 c45 0 59 -17 37 -47 -12 -15 -17 -16 -34 -5 -12 6 -28 12
-37 12 -22 0 -12 -22 19 -40 35 -20 78 -4 91 33 12 34 -1 61 -33 65 -25 4 -28
24 -5 42 8 8 20 22 25 32 9 17 5 18 -51 18 -47 0 -60 -3 -60 -15z"/>
</g>
</svg>
